<?xml version="1.0" encoding="UTF-8" standalone="no"?>
<svg
   xmlns:dc="http://purl.org/dc/elements/1.1/"
   xmlns:cc="http://creativecommons.org/ns#"
   xmlns:rdf="http://www.w3.org/1999/02/22-rdf-syntax-ns#"
   xmlns:svg="http://www.w3.org/2000/svg"
   xmlns="http://www.w3.org/2000/svg"
   xmlns:xlink="http://www.w3.org/1999/xlink"
   xmlns:sodipodi="http://sodipodi.sourceforge.net/DTD/sodipodi-0.dtd"
   xmlns:inkscape="http://www.inkscape.org/namespaces/inkscape"
   width="24"
   height="24"
   viewBox="0 0 24 24"
   version="1.1"
   id="svg6"
   sodipodi:docname="save.svg"
   inkscape:version="0.92.4 (5da689c313, 2019-01-14)"
   inkscape:export-filename="D:\Code\temp\cordova\bodymap2\src\android\res\drawable-xxxhdpi\save.png"
   inkscape:export-xdpi="638.37982"
   inkscape:export-ydpi="638.37982">
  <metadata
     id="metadata12">
    <rdf:RDF>
      <cc:Work
         rdf:about="">
        <dc:format>image/svg+xml</dc:format>
        <dc:type
           rdf:resource="http://purl.org/dc/dcmitype/StillImage" />
        <dc:title />
      </cc:Work>
    </rdf:RDF>
  </metadata>
  <defs
     id="defs10">
    <linearGradient
       inkscape:collect="always"
       id="linearGradient823">
      <stop
         style="stop-color:#00f800;stop-opacity:1"
         offset="0"
         id="stop819" />
      <stop
         style="stop-color:#00c500;stop-opacity:1"
         offset="1"
         id="stop821" />
    </linearGradient>
    <filter
       inkscape:collect="always"
       style="color-interpolation-filters:sRGB"
       id="filter836"
       x="-0.018"
       width="1.036"
       y="-0.018"
       height="1.036">
      <feGaussianBlur
         inkscape:collect="always"
         stdDeviation="0.135"
         id="feGaussianBlur838" />
    </filter>
    <linearGradient
       inkscape:collect="always"
       xlink:href="#linearGradient823"
       id="linearGradient825"
       x1="12.490627"
       y1="0.27802661"
       x2="12.490627"
       y2="23.21023"
       gradientUnits="userSpaceOnUse" />
  </defs>
  <sodipodi:namedview
     pagecolor="#ffffff"
     bordercolor="#666666"
     borderopacity="1"
     objecttolerance="10"
     gridtolerance="10"
     guidetolerance="10"
     inkscape:pageopacity="0"
     inkscape:pageshadow="2"
     inkscape:window-width="1920"
     inkscape:window-height="1017"
     id="namedview8"
     showgrid="false"
     inkscape:zoom="27.812867"
     inkscape:cx="10.973304"
     inkscape:cy="11.297044"
     inkscape:window-x="3832"
     inkscape:window-y="-8"
     inkscape:window-maximized="1"
     inkscape:current-layer="svg6" />
  <path
     d="M0 0h24v24H0z"
     fill="none"
     id="path2" />
  <path
     style="fill:#009d00;fill-opacity:1;filter:url(#filter836)"
     id="path822"
     d="M 17,3.1977502 H 5 c -1.11,0 -2,0.9 -2,2 V 19.19775 c 0,1.1 0.89,2 2,2 h 14 c 1.1,0 2,-0.9 2,-2 V 7.1977502 Z M 12,19.19775 c -1.66,0 -3,-1.34 -3,-3 0,-1.66 1.34,-3 3,-3 1.66,0 3,1.34 3,3 0,1.66 -1.34,3 -3,3 z M 15,9.1977502 H 5 v -4 h 10 z"
     inkscape:connector-curvature="0"
     transform="matrix(1.2718574,0,0,1.2718574,-3.1724018,-3.3116861)" />
  <path
     d="M 18.449173,0.3736828 H 3.1868848 c -1.4117617,0 -2.54371463,1.1446717 -2.54371463,2.5437147 V 20.7234 c 0,1.399043 1.13195293,2.543715 2.54371463,2.543715 H 20.992888 c 1.399043,0 2.543714,-1.144672 2.543714,-2.543715 V 5.4611122 Z M 12.089885,20.7234 c -2.1112822,0 -3.8155708,-1.704288 -3.8155708,-3.815571 0,-2.111283 1.7042886,-3.815572 3.8155708,-3.815572 2.111285,0 3.815573,1.704289 3.815573,3.815572 0,2.111283 -1.704288,3.815571 -3.815573,3.815571 z M 15.905458,8.004827 H 3.1868848 V 2.9173975 H 15.905458 Z"
     id="path4"
     style="fill:url(#linearGradient825);fill-opacity:1;stroke-width:1.27185726"
     inkscape:connector-curvature="0" />
</svg>
